<svg width="493.54999999999995px" height="125.6px" xmlns="http://www.w3.org/2000/svg" viewBox="3.2250000000000227 12.200000000000003 493.54999999999995 125.6" style="background: rgba(0, 0, 0, 0);" preserveAspectRatio="xMidYMid"><defs><filter id="editing-raise" x="-100%" y="-100%" width="300%" height="300%"><feFlood flood-color="#ccc" result="flood-surface"></feFlood><feFlood flood-color="#777" result="flood-extrude"></feFlood><feMorphology operator="erode" in="SourceAlpha" radius="1" result="erode"></feMorphology><feConvolveMatrix in="erode" result="shadow" order="11,8" divisor="1" kernelMatrix="0 0 0 1 1 1 1 1 0 0 0 0 0 1 0 0 0 0 0 1 0 0 0 0 1 0 0 0 0 0 1 0 0 0 0 1 0 0 0 0 0 1 0 0 0 0 1 0 0 0 0 0 1 0 0 0 0 0 1 0 0 0 1 0 0 0 0 0 0 1 1 0 1 1 0 0 0 0 0 0 0 0 1 0 0 0 0 0"></feConvolveMatrix><feOffset dx="0" dy="4" in="shadow" result="offset"></feOffset><feGaussianBlur in="offset" stdDeviation="0.2" result="blur"></feGaussianBlur><feComposite operator="in" in="flood-extrude" in2="blur" result="extrude"></feComposite><feMorphology operator="erode" in="SourceAlpha" radius="1" result="erode2"></feMorphology><feConvolveMatrix in="erode2" result="out" order="4,4" divisor="1" kernelMatrix="0 1 1 0 1 0 0 1 1 0 0 1 0 1 1 0 "></feConvolveMatrix><feComposite operator="in" in="flood-surface" in2="out" result="text"></feComposite><feMerge><feMergeNode in="extrude"></feMergeNode><feMergeNode in="text"></feMergeNode></feMerge></filter></defs><g filter="url(#editing-raise)"><g transform="translate(74.89501762390137, 106.58500289916992)"><path d="M48.06-46.59L48.06 0L42.18 0L42.18-38.08L28.16 0.06L24.58 0.06L10.56-38.08L10.56 0L5.70 0L5.70-42.37L4.74-46.59L13.38-46.59L26.94-10.30L40.32-46.59L48.06-46.59ZM58.50 13.89L58.50 13.89L56.06 13.89L56.06 9.60L56.77 9.60L56.77 9.60Q58.69 9.60 60.22 8.74L60.22 8.74L60.22 8.74Q61.76 7.87 62.88 6.21L62.88 6.21L62.88 6.21Q64 4.54 64.67 3.14L64.67 3.14L64.67 3.14Q65.34 1.73 66.05-0.26L66.05-0.26L54.40-31.81L60.16-31.81L68.61-7.62L77.06-31.81L82.05-31.81L70.78 0.13L70.78 0.13Q65.86 13.89 58.50 13.89ZM94.27-18.43L94.27 0L88.32 0L88.32-42.37L87.36-46.59L101.31-46.59L101.31-46.59Q108.61-46.59 112.80-43.17L112.80-43.17L112.80-43.17Q116.99-39.74 116.99-32.51L116.99-32.51L116.99-32.51Q116.99-25.79 112.58-22.11L112.58-22.11L112.58-22.11Q108.16-18.43 101.38-18.43L101.38-18.43L94.27-18.43ZM94.27-42.18L94.27-22.78L101.25-22.78L101.25-22.78Q105.66-22.78 108.22-25.44L108.22-25.44L108.22-25.44Q110.78-28.10 110.78-32.51L110.78-32.51L110.78-32.51Q110.78-37.06 108.32-39.62L108.32-39.62L108.32-39.62Q105.86-42.18 101.31-42.18L101.31-42.18L94.27-42.18ZM134.46 0.83L134.46 0.83L134.46 0.83Q127.74 0.83 123.94-4.06L123.94-4.06L123.94-4.06Q120.13-8.96 120.13-15.87L120.13-15.87L120.13-15.87Q120.13-22.72 123.97-27.65L123.97-27.65L123.97-27.65Q127.81-32.58 134.46-32.58L134.46-32.58L134.46-32.58Q141.25-32.58 145.06-27.71L145.06-27.71L145.06-27.71Q148.86-22.85 148.86-15.87L148.86-15.87L148.86-15.87Q148.86-8.90 145.06-4.03L145.06-4.03L145.06-4.03Q141.25 0.83 134.46 0.83ZM134.46-3.20L134.46-3.20L134.46-3.20Q137.60-3.20 139.68-5.31L139.68-5.31L139.68-5.31Q141.76-7.42 142.50-10.14L142.50-10.14L142.50-10.14Q143.23-12.86 143.23-15.87L143.23-15.87L143.23-15.87Q143.23-18.88 142.46-21.60L142.46-21.60L142.46-21.60Q141.70-24.32 139.62-26.43L139.62-26.43L139.62-26.43Q137.54-28.54 134.46-28.54L134.46-28.54L134.46-28.54Q131.39-28.54 129.31-26.43L129.31-26.43L129.31-26.43Q127.23-24.32 126.50-21.60L126.50-21.60L126.50-21.60Q125.76-18.88 125.76-15.87L125.76-15.87L125.76-15.87Q125.76-13.06 126.59-10.30L126.59-10.30L126.59-10.30Q127.42-7.55 129.50-5.38L129.50-5.38L129.50-5.38Q131.58-3.20 134.46-3.20ZM161.66-21.12L161.66 0L156.35 0L156.35-23.04L156.35-23.04Q156.35-28.67 154.30-31.68L154.30-31.68L160.06-32.38L160.06-32.38Q161.22-29.57 161.54-26.43L161.54-26.43L161.54-26.43Q163.26-29.12 166.08-30.75L166.08-30.75L166.08-30.75Q168.90-32.38 171.97-32.38L171.97-32.38L170.69-26.75L170.69-26.75Q165.50-26.75 161.66-21.12L161.66-21.12ZM193.54-4.03L193.54-4.03L194.43-0.45L194.43-0.45Q190.66 0.70 188.10 0.70L188.10 0.70L188.10 0.70Q184.19 0.70 182.50-1.38L182.50-1.38L182.50-1.38Q180.80-3.46 180.80-7.55L180.80-7.55L180.80-27.78L176.06-27.78L176.06-30.98L176.06-30.98Q181.63-31.10 183.49-40.90L183.49-40.90L187.52-40.90L187.52-40.90Q186.11-35.14 186.11-31.81L186.11-31.81L194.43-31.81L193.28-27.78L186.11-27.78L186.11-7.42L186.11-7.42Q186.11-5.38 186.85-4.38L186.85-4.38L186.85-4.38Q187.58-3.39 189.50-3.39L189.50-3.39L189.50-3.39Q190.98-3.39 193.54-4.03ZM211.90 0.83L211.90 0.83L211.90 0.83Q205.18 0.83 201.38-4.06L201.38-4.06L201.38-4.06Q197.57-8.96 197.57-15.87L197.57-15.87L197.57-15.87Q197.57-22.72 201.41-27.65L201.41-27.65L201.41-27.65Q205.25-32.58 211.90-32.58L211.90-32.58L211.90-32.58Q218.69-32.58 222.50-27.71L222.50-27.71L222.50-27.71Q226.30-22.85 226.30-15.87L226.30-15.87L226.30-15.87Q226.30-8.90 222.50-4.03L222.50-4.03L222.50-4.03Q218.69 0.83 211.90 0.83ZM211.90-3.20L211.90-3.20L211.90-3.20Q215.04-3.20 217.12-5.31L217.12-5.31L217.12-5.31Q219.20-7.42 219.94-10.14L219.94-10.14L219.94-10.14Q220.67-12.86 220.67-15.87L220.67-15.87L220.67-15.87Q220.67-18.88 219.90-21.60L219.90-21.60L219.90-21.60Q219.14-24.32 217.06-26.43L217.06-26.43L217.06-26.43Q214.98-28.54 211.90-28.54L211.90-28.54L211.90-28.54Q208.83-28.54 206.75-26.43L206.75-26.43L206.75-26.43Q204.67-24.32 203.94-21.60L203.94-21.60L203.94-21.60Q203.20-18.88 203.20-15.87L203.20-15.87L203.20-15.87Q203.20-13.06 204.03-10.30L204.03-10.30L204.03-10.30Q204.86-7.55 206.94-5.38L206.94-5.38L206.94-5.38Q209.02-3.20 211.90-3.20ZM240.38-27.84L240.38 0L235.14 0L235.14-27.84L230.34-27.84L230.34-31.17L230.34-31.17Q230.53-31.17 231.46-31.26L231.46-31.26L231.46-31.26Q232.38-31.36 232.80-31.46L232.80-31.46L232.80-31.46Q233.22-31.55 233.63-31.71L233.63-31.71L233.63-31.71Q234.05-31.87 234.40-32.16L234.40-32.16L234.40-32.16Q234.75-32.45 234.94-32.83L234.94-32.83L234.94-32.83Q235.14-33.22 235.26-33.73L235.26-33.73L235.26-33.73Q235.46-34.50 235.97-37.76L235.97-37.76L235.97-37.76Q236.93-42.94 240.13-46.11L240.13-46.11L240.13-46.11Q243.33-49.28 248.45-49.28L248.45-49.28L248.45-49.28Q251.84-49.28 254.66-47.68L254.66-47.68L253.18-43.71L253.18-43.71Q251.39-45.31 248.58-45.31L248.58-45.31L248.58-45.31Q245.95-45.31 244.19-44.06L244.19-44.06L244.19-44.06Q242.43-42.82 241.66-40.58L241.66-40.58L241.66-40.58Q240.90-38.34 240.64-36.35L240.64-36.35L240.64-36.35Q240.38-34.37 240.38-31.81L240.38-31.81L249.54-31.81L248.38-27.84L240.38-27.84ZM264.64 0.83L264.64 0.83L264.64 0.83Q257.92 0.83 254.11-4.06L254.11-4.06L254.11-4.06Q250.30-8.96 250.30-15.87L250.30-15.87L250.30-15.87Q250.30-22.72 254.14-27.65L254.14-27.65L254.14-27.65Q257.98-32.58 264.64-32.58L264.64-32.58L264.64-32.58Q271.42-32.58 275.23-27.71L275.23-27.71L275.23-27.71Q279.04-22.85 279.04-15.87L279.04-15.87L279.04-15.87Q279.04-8.90 275.23-4.03L275.23-4.03L275.23-4.03Q271.42 0.83 264.64 0.83ZM264.64-3.20L264.64-3.20L264.64-3.20Q267.78-3.20 269.86-5.31L269.86-5.31L269.86-5.31Q271.94-7.42 272.67-10.14L272.67-10.14L272.67-10.14Q273.41-12.86 273.41-15.87L273.41-15.87L273.41-15.87Q273.41-18.88 272.64-21.60L272.64-21.60L272.64-21.60Q271.87-24.32 269.79-26.43L269.79-26.43L269.79-26.43Q267.71-28.54 264.64-28.54L264.64-28.54L264.64-28.54Q261.57-28.54 259.49-26.43L259.49-26.43L259.49-26.43Q257.41-24.32 256.67-21.60L256.67-21.60L256.67-21.60Q255.94-18.88 255.94-15.87L255.94-15.87L255.94-15.87Q255.94-13.06 256.77-10.30L256.77-10.30L256.77-10.30Q257.60-7.55 259.68-5.38L259.68-5.38L259.68-5.38Q261.76-3.20 264.64-3.20ZM292.48-48.77L292.48 0L287.17 0L287.17-45.06L287.17-45.06Q287.17-45.12 286.98-45.95L286.98-45.95L286.98-45.95Q286.78-46.78 286.56-47.71L286.56-47.71L286.56-47.71Q286.34-48.64 286.34-48.77L286.34-48.77L292.48-48.77ZM309.70-42.50L309.70-42.50L309.70-42.50Q309.70-40.83 308.58-39.71L308.58-39.71L308.58-39.71Q307.46-38.59 305.79-38.59L305.79-38.59L305.79-38.59Q304.19-38.59 303.07-39.74L303.07-39.74L303.07-39.74Q301.95-40.90 301.95-42.50L301.95-42.50L301.95-42.50Q301.95-44.10 303.07-45.25L303.07-45.25L303.07-45.25Q304.19-46.40 305.79-46.40L305.79-46.40L305.79-46.40Q307.39-46.40 308.54-45.25L308.54-45.25L308.54-45.25Q309.70-44.10 309.70-42.50ZM308.54-31.81L308.54 0L303.23 0L303.23-28.03L303.23-28.03Q303.23-28.10 303.04-28.96L303.04-28.96L303.04-28.96Q302.85-29.82 302.66-30.75L302.66-30.75L302.66-30.75Q302.46-31.68 302.46-31.81L302.46-31.81L308.54-31.81ZM331.07 0.83L331.07 0.83L331.07 0.83Q324.35 0.83 320.54-4.06L320.54-4.06L320.54-4.06Q316.74-8.96 316.74-15.87L316.74-15.87L316.74-15.87Q316.74-22.72 320.58-27.65L320.58-27.65L320.58-27.65Q324.42-32.58 331.07-32.58L331.07-32.58L331.07-32.58Q337.86-32.58 341.66-27.71L341.66-27.71L341.66-27.71Q345.47-22.85 345.47-15.87L345.47-15.87L345.47-15.87Q345.47-8.90 341.66-4.03L341.66-4.03L341.66-4.03Q337.86 0.83 331.07 0.83ZM331.07-3.20L331.07-3.20L331.07-3.20Q334.21-3.20 336.29-5.31L336.29-5.31L336.29-5.31Q338.37-7.42 339.10-10.14L339.10-10.14L339.10-10.14Q339.84-12.86 339.84-15.87L339.84-15.87L339.84-15.87Q339.84-18.88 339.07-21.60L339.07-21.60L339.07-21.60Q338.30-24.32 336.22-26.43L336.22-26.43L336.22-26.43Q334.14-28.54 331.07-28.54L331.07-28.54L331.07-28.54Q328.00-28.54 325.92-26.43L325.92-26.43L325.92-26.43Q323.84-24.32 323.10-21.60L323.10-21.60L323.10-21.60Q322.37-18.88 322.37-15.87L322.37-15.87L322.37-15.87Q322.37-13.06 323.20-10.30L323.20-10.30L323.20-10.30Q324.03-7.55 326.11-5.38L326.11-5.38L326.11-5.38Q328.19-3.20 331.07-3.20Z"></path></g></g><style>text {
  font-size: 64px;
  font-family: Arial Black;
  dominant-baseline: central;
  text-anchor: middle;
}</style></svg>